<svg fill="none" height="24" viewBox="0 0 24 24" width="24" xmlns="http://www.w3.org/2000/svg"><path d="m8.2896 20c7.5472 0 11.6752-6.1562 11.6752-11.49475 0-.17486 0-.34892-.012-.5222.8031-.5719 1.4963-1.28 2.0472-2.09117-.7489.32671-1.5433.54097-2.3568.63562.8566-.50489 1.4977-1.29899 1.804-2.23452-.8055.47057-1.6867.80221-2.6056.9806-1.2719-1.33158-3.293-1.65749-4.93-.79497-1.6369.86251-2.4826 2.69894-2.0628 4.47953-3.29928-.16284-6.37322-1.6971-8.4568-4.22094-1.0891 1.84594-.53281 4.20744 1.2704 5.3929-.65301-.019-1.29178-.19245-1.8624-.50562v.0512c.00053 1.92312 1.3774 3.57942 3.292 3.96022-.6041.1622-1.23794.1859-1.8528.0693.53756 1.6457 2.07806 2.7731 3.8336 2.8056-1.45301 1.1243-3.24795 1.7346-5.096 1.7328-.32648-.0006-.65264-.0201-.9768-.0583 1.87651 1.1856 4.05993 1.8145 6.2896 1.8115" fill="#1da1f2"/></svg>